<svg width="88" height="88" viewBox="0 0 88 88" fill="none" xmlns="http://www.w3.org/2000/svg">
<circle cx="44" cy="44" r="44" fill="#FFBD13"/>
<path d="M10.71 44.395H18.48V47.485H10.71V44.395ZM34.9064 51.55C35.3064 51.55 35.6214 51.665 35.8514 51.895C36.0914 52.115 36.2114 52.41 36.2114 52.78V55H21.3314V53.77C21.3314 53.52 21.3814 53.26 21.4814 52.99C21.5914 52.71 21.7614 52.46 21.9914 52.24L28.5764 45.64C29.1264 45.08 29.6164 44.545 30.0464 44.035C30.4864 43.525 30.8514 43.02 31.1414 42.52C31.4314 42.02 31.6514 41.515 31.8014 41.005C31.9614 40.485 32.0414 39.94 32.0414 39.37C32.0414 38.85 31.9664 38.395 31.8164 38.005C31.6664 37.605 31.4514 37.27 31.1714 37C30.9014 36.73 30.5714 36.53 30.1814 36.4C29.8014 36.26 29.3714 36.19 28.8914 36.19C28.4514 36.19 28.0414 36.255 27.6614 36.385C27.2914 36.505 26.9614 36.68 26.6714 36.91C26.3814 37.13 26.1364 37.39 25.9364 37.69C25.7364 37.99 25.5864 38.32 25.4864 38.68C25.3164 39.14 25.0964 39.445 24.8264 39.595C24.5564 39.745 24.1664 39.78 23.6564 39.7L21.7064 39.355C21.8564 38.315 22.1464 37.405 22.5764 36.625C23.0064 35.835 23.5414 35.18 24.1814 34.66C24.8314 34.13 25.5714 33.735 26.4014 33.475C27.2414 33.205 28.1414 33.07 29.1014 33.07C30.1014 33.07 31.0164 33.22 31.8464 33.52C32.6764 33.81 33.3864 34.225 33.9764 34.765C34.5664 35.305 35.0264 35.955 35.3564 36.715C35.6864 37.475 35.8514 38.32 35.8514 39.25C35.8514 40.05 35.7314 40.79 35.4914 41.47C35.2614 42.15 34.9464 42.8 34.5464 43.42C34.1564 44.04 33.6964 44.64 33.1664 45.22C32.6364 45.8 32.0814 46.39 31.5014 46.99L26.6114 51.985C27.0814 51.845 27.5464 51.74 28.0064 51.67C28.4764 51.59 28.9214 51.55 29.3414 51.55H34.9064ZM43.6838 41.185C44.1638 41.085 44.6238 41.015 45.0638 40.975C45.5038 40.925 45.9288 40.9 46.3388 40.9C47.4788 40.9 48.4838 41.07 49.3538 41.41C50.2238 41.75 50.9538 42.22 51.5438 42.82C52.1338 43.42 52.5788 44.125 52.8788 44.935C53.1788 45.735 53.3288 46.6 53.3288 47.53C53.3288 48.68 53.1238 49.73 52.7138 50.68C52.3138 51.63 51.7538 52.445 51.0338 53.125C50.3138 53.795 49.4588 54.315 48.4688 54.685C47.4888 55.055 46.4188 55.24 45.2588 55.24C44.5788 55.24 43.9338 55.17 43.3238 55.03C42.7138 54.89 42.1388 54.705 41.5988 54.475C41.0688 54.235 40.5738 53.965 40.1138 53.665C39.6638 53.355 39.2588 53.03 38.8988 52.69L40.0388 51.115C40.2788 50.775 40.5938 50.605 40.9838 50.605C41.2338 50.605 41.4888 50.685 41.7488 50.845C42.0088 51.005 42.3038 51.18 42.6338 51.37C42.9738 51.56 43.3688 51.735 43.8188 51.895C44.2788 52.055 44.8288 52.135 45.4688 52.135C46.1488 52.135 46.7488 52.025 47.2688 51.805C47.7888 51.585 48.2188 51.28 48.5588 50.89C48.9088 50.49 49.1688 50.02 49.3388 49.48C49.5188 48.93 49.6088 48.335 49.6088 47.695C49.6088 46.515 49.2638 45.595 48.5738 44.935C47.8938 44.265 46.8838 43.93 45.5438 43.93C44.5138 43.93 43.4588 44.12 42.3788 44.5L40.0688 43.84L41.8688 33.31H52.5788V34.885C52.5788 35.415 52.4138 35.845 52.0838 36.175C51.7538 36.505 51.1938 36.67 50.4038 36.67H44.4488L43.6838 41.185ZM66.1711 38.56C66.1711 39.38 66.0311 40.12 65.7511 40.78C65.4811 41.44 65.1161 42.005 64.6561 42.475C64.1961 42.935 63.6611 43.29 63.0511 43.54C62.4411 43.79 61.8061 43.915 61.1461 43.915C60.4261 43.915 59.7611 43.79 59.1511 43.54C58.5411 43.29 58.0111 42.935 57.5611 42.475C57.1211 42.005 56.7761 41.44 56.5261 40.78C56.2761 40.12 56.1511 39.38 56.1511 38.56C56.1511 37.72 56.2761 36.96 56.5261 36.28C56.7761 35.6 57.1211 35.025 57.5611 34.555C58.0111 34.085 58.5411 33.725 59.1511 33.475C59.7611 33.215 60.4261 33.085 61.1461 33.085C61.8661 33.085 62.5311 33.215 63.1411 33.475C63.7611 33.725 64.2961 34.085 64.7461 34.555C65.1961 35.025 65.5461 35.6 65.7961 36.28C66.0461 36.96 66.1711 37.72 66.1711 38.56ZM63.3211 38.56C63.3211 37.98 63.2611 37.495 63.1411 37.105C63.0311 36.715 62.8761 36.4 62.6761 36.16C62.4861 35.92 62.2561 35.75 61.9861 35.65C61.7261 35.54 61.4461 35.485 61.1461 35.485C60.8461 35.485 60.5661 35.54 60.3061 35.65C60.0461 35.75 59.8211 35.92 59.6311 36.16C59.4511 36.4 59.3061 36.715 59.1961 37.105C59.0861 37.495 59.0311 37.98 59.0311 38.56C59.0311 39.12 59.0861 39.59 59.1961 39.97C59.3061 40.34 59.4511 40.64 59.6311 40.87C59.8211 41.1 60.0461 41.265 60.3061 41.365C60.5661 41.465 60.8461 41.515 61.1461 41.515C61.4461 41.515 61.7261 41.465 61.9861 41.365C62.2561 41.265 62.4861 41.1 62.6761 40.87C62.8761 40.64 63.0311 40.34 63.1411 39.97C63.2611 39.59 63.3211 39.12 63.3211 38.56ZM73.3861 33.895C73.5161 33.745 73.6661 33.61 73.8361 33.49C74.0161 33.37 74.2661 33.31 74.5861 33.31H77.2861L61.1761 54.445C61.0461 54.605 60.8911 54.74 60.7111 54.85C60.5311 54.95 60.3111 55 60.0511 55H57.2911L73.3861 33.895ZM78.4261 49.9C78.4261 50.72 78.2861 51.46 78.0061 52.12C77.7361 52.78 77.3711 53.345 76.9111 53.815C76.4511 54.275 75.9161 54.635 75.3061 54.895C74.6961 55.145 74.0611 55.27 73.4011 55.27C72.6811 55.27 72.0161 55.145 71.4061 54.895C70.7961 54.635 70.2661 54.275 69.8161 53.815C69.3761 53.345 69.0311 52.78 68.7811 52.12C68.5311 51.46 68.4061 50.72 68.4061 49.9C68.4061 49.06 68.5311 48.3 68.7811 47.62C69.0311 46.94 69.3761 46.365 69.8161 45.895C70.2661 45.425 70.7961 45.065 71.4061 44.815C72.0161 44.555 72.6811 44.425 73.4011 44.425C74.1211 44.425 74.7861 44.555 75.3961 44.815C76.0161 45.065 76.5461 45.425 76.9861 45.895C77.4361 46.365 77.7861 46.94 78.0361 47.62C78.2961 48.3 78.4261 49.06 78.4261 49.9ZM75.5611 49.9C75.5611 49.32 75.5061 48.835 75.3961 48.445C75.2861 48.055 75.1311 47.74 74.9311 47.5C74.7411 47.26 74.5111 47.09 74.2411 46.99C73.9811 46.88 73.7011 46.825 73.4011 46.825C73.1011 46.825 72.8211 46.88 72.5611 46.99C72.3011 47.09 72.0761 47.26 71.8861 47.5C71.6961 47.74 71.5461 48.055 71.4361 48.445C71.3361 48.835 71.2861 49.32 71.2861 49.9C71.2861 50.46 71.3361 50.93 71.4361 51.31C71.5461 51.69 71.6961 51.995 71.8861 52.225C72.0761 52.455 72.3011 52.62 72.5611 52.72C72.8211 52.82 73.1011 52.87 73.4011 52.87C73.7011 52.87 73.9811 52.82 74.2411 52.72C74.5111 52.62 74.7411 52.455 74.9311 52.225C75.1311 51.995 75.2861 51.69 75.3961 51.31C75.5061 50.93 75.5611 50.46 75.5611 49.9Z" fill="white"/>
</svg>
